<svg width="99" height="99" viewBox="0 0 99 99" fill="none" xmlns="http://www.w3.org/2000/svg">
<path fill-rule="evenodd" clip-rule="evenodd" d="M75.8749 23.6776L54.3748 14.4632C51.2618 13.1291 47.7382 13.1291 44.6252 14.4632L23.1251 23.6776C21.6084 24.3276 20.625 25.8189 20.625 27.4691V49.1373C20.625 57.1303 24.4852 64.6313 30.9894 69.2772L44.7048 79.0739C47.5733 81.1228 51.4267 81.1228 54.2952 79.0739L68.0106 69.2772C74.5149 64.6313 78.375 57.1303 78.375 49.1373V27.4691C78.375 25.8189 77.3916 24.3276 75.8749 23.6776ZM62.6559 37.7497C63.0009 37.3184 62.931 36.6891 62.4997 36.3441C62.0684 35.9991 61.4391 36.069 61.0941 36.5003L45.2921 56.2529L37.8321 48.7929C37.4416 48.4024 36.8084 48.4024 36.4179 48.7929C36.0274 49.1834 36.0274 49.8166 36.4179 50.2071L44.2729 58.0621C44.9051 58.6943 45.9464 58.6366 46.5049 57.9385L62.6559 37.7497Z" fill="url(#paint0_linear_65_844)"/>
<defs>
<linearGradient id="paint0_linear_65_844" x1="49.5" y1="13.4626" x2="49.5" y2="80.6106" gradientUnits="userSpaceOnUse">
<stop stop-color="#EECB8C"/>
<stop offset="1" stop-color="#887450"/>
</linearGradient>
</defs>
</svg>
