<svg width="87" height="86" viewBox="0 0 87 86" fill="none" xmlns="http://www.w3.org/2000/svg">
<path d="M73.969 18.8125C72.2141 17.0804 69.1609 17.0804 67.406 18.8125L66.5373 19.6712C66.2206 19.9843 65.7992 20.1563 65.3506 20.1563H65.1494C64.7008 20.1563 64.2794 19.9843 63.9627 19.6698L63.0247 18.744C62.7066 18.4282 62.5312 18.0116 62.5312 17.5682C62.5312 17.0616 62.761 16.5886 63.162 16.2728L63.9423 15.656C64.7729 14.9976 65.25 14.0167 65.25 12.9645C65.25 12.0575 64.8789 11.1693 64.2291 10.5283L61.7347 8.06251C59.9797 6.33042 56.9265 6.32908 55.1716 8.06251L53.3283 9.88598C52.2503 10.9489 51.6562 12.3652 51.6562 13.9011C51.6562 14.667 51.8112 15.4142 52.1171 16.121C54.6564 21.977 59.2987 26.6278 65.1875 29.2145L67.9348 30.4198C68.6675 30.7423 69.4464 30.9063 70.2498 30.9063C71.7709 30.9063 73.2023 30.3204 74.2803 29.2561L76.125 27.4327C77.0018 26.566 77.4844 25.4144 77.4844 24.1875C77.4844 22.9607 77.0018 21.8091 76.125 20.9437L73.969 18.8125ZM74.2028 25.5313L72.3595 27.3547C71.495 28.2053 70.1519 28.4553 69.0399 27.9634L66.2926 26.7568C61.0319 24.4455 56.8844 20.292 54.617 15.0621C54.4566 14.6926 54.375 14.3015 54.375 13.8702C54.375 13.0828 54.6863 12.3437 55.2491 11.7874L57.0938 9.96392C57.4581 9.60379 57.9393 9.40626 58.4531 9.40626C58.967 9.40626 59.4482 9.60379 59.8125 9.96258L62.307 12.4284C62.4483 12.5695 62.5312 12.7656 62.5312 12.9645C62.5312 13.1956 62.4266 13.412 62.2431 13.5571L61.4641 14.1739C60.4133 15.003 59.8125 16.2392 59.8125 17.5682C59.8125 18.7292 60.2692 19.8203 61.0998 20.6427L62.0378 21.5685C62.8697 22.3909 63.9749 22.8438 65.1494 22.8438H65.3506C66.5251 22.8438 67.6303 22.3909 68.4595 21.5712L69.3281 20.7139C70.0554 19.995 71.3196 19.995 72.0469 20.7139L74.2028 22.8438C74.5672 23.2025 74.7656 23.6796 74.7656 24.1875C74.7656 24.6955 74.5672 25.1725 74.2028 25.5313Z" fill="url(#paint0_linear_65_837)"/>
<path d="M26.4657 69.1212L29.6806 67.3058C29.9892 67.4455 30.2991 67.5745 30.6118 67.6901L31.5864 71.2188H39.0997L40.0757 67.6914C40.387 67.5758 40.6983 67.4468 41.0069 67.3071L44.2218 69.1225L49.5343 63.8711L47.6978 60.6932C47.8391 60.3881 47.9696 60.0817 48.0865 59.7727L51.6562 58.8079V51.381L48.0879 50.4162C47.971 50.1084 47.8405 49.8007 47.6991 49.4957L49.5356 46.3177L44.2232 41.0663L41.0069 42.8804C40.6997 42.7407 40.3898 42.6117 40.0771 42.4961L39.1011 38.9688H31.5878L30.6118 42.4961C30.3005 42.6117 29.9892 42.7393 29.682 42.8804L26.4657 41.0663L21.1532 46.3177L22.9898 49.4957C22.8484 49.8007 22.7179 50.1071 22.601 50.4162L19.0312 51.3796V58.8065L22.5996 59.7713C22.7165 60.0791 22.847 60.3868 22.9884 60.6918L21.1519 63.8698L26.4657 69.1212ZM21.75 56.7546V53.4315L24.7311 52.6239L24.95 51.9198C25.1444 51.299 25.4054 50.6795 25.7275 50.0789L26.0782 49.4272L24.5422 46.7665L26.9183 44.4177L29.6085 45.9347L30.2692 45.5894C30.8796 45.2709 31.5062 45.0116 32.1315 44.8208L32.8439 44.6044L33.6636 41.6562H37.0253L37.8423 44.6031L38.5546 44.8194C39.1799 45.0116 39.8066 45.2696 40.4169 45.5881L41.0776 45.9334L43.7678 44.4163L46.144 46.7652L44.6079 49.4258L44.9586 50.0775C45.2808 50.6782 45.5431 51.2977 45.7362 51.9185L45.955 52.6226L48.9375 53.4329V56.756L45.9564 57.5636L45.7375 58.2677C45.5431 58.8885 45.2821 59.508 44.96 60.1086L44.6093 60.7603L46.1453 63.421L43.7692 65.7698L41.0776 64.2514L40.4183 64.5981C39.8107 64.9166 39.184 65.1759 38.556 65.3667L37.8436 65.5831L37.0239 68.5312H33.6622L32.8452 65.5844L32.1329 65.3681C31.5049 65.1759 30.8782 64.9179 30.2706 64.5994L29.6113 64.2528L26.9197 65.7712L24.5435 63.4223L26.0796 60.7617L25.7289 60.11C25.4067 59.5093 25.1444 58.8898 24.9513 58.269L24.7325 57.5649L21.75 56.7546Z" fill="url(#paint1_linear_65_837)"/>
<path d="M35.3438 63.1562C39.8419 63.1562 43.5 59.5402 43.5 55.0938C43.5 50.6473 39.8419 47.0312 35.3438 47.0312C30.8456 47.0312 27.1875 50.6473 27.1875 55.0938C27.1875 59.5402 30.8456 63.1562 35.3438 63.1562ZM35.3438 49.7188C38.3425 49.7188 40.7812 52.1294 40.7812 55.0938C40.7812 58.0581 38.3425 60.4688 35.3438 60.4688C32.345 60.4688 29.9062 58.0581 29.9062 55.0938C29.9062 52.1294 32.345 49.7188 35.3438 49.7188Z" fill="url(#paint2_linear_65_837)"/>
<path d="M81.5625 1.34375H46.2188C43.9703 1.34375 42.1406 3.15244 42.1406 5.375V16.125H27.1875C25.298 16.125 23.7197 17.4069 23.2589 19.1337C14.7683 23.5855 9.51562 32.1438 9.51562 41.6562V48.4825C4.91278 49.1383 1.35938 53.0526 1.35938 57.7812V63.1562C1.35938 68.3418 5.62917 72.5625 10.875 72.5625H17.6719V48.375H12.2344V41.6562C12.2344 33.5024 16.545 26.1225 23.5906 22.0147C24.273 23.2993 25.6201 24.1875 27.1875 24.1875H42.1406V32.25C42.1406 34.4726 43.9703 36.2812 46.2188 36.2812H57.7938C58.2234 38.0322 58.4531 39.8341 58.4531 41.6562V48.375H53.0156V72.5625H55.5971C54.965 75.6249 52.2204 77.9375 48.9375 77.9375H41.9476C41.34 75.6249 39.2302 73.9062 36.7031 73.9062H31.2656C28.2668 73.9062 25.8281 76.3169 25.8281 79.2812C25.8281 82.2456 28.2668 84.6562 31.2656 84.6562H36.7031C39.2302 84.6562 41.34 82.9376 41.9476 80.625H48.9375C53.7211 80.625 57.681 77.1124 58.3444 72.5625H59.8125C65.0583 72.5625 69.3281 68.3418 69.3281 63.1562V57.7812C69.3281 53.0526 65.7747 49.1383 61.1719 48.4825V41.6562C61.1719 39.8395 60.9775 38.0389 60.5955 36.2812H63.8906V44.0804L76.5151 36.2812H81.5625C83.8109 36.2812 85.6406 34.4726 85.6406 32.25V5.375C85.6406 3.15244 83.8109 1.34375 81.5625 1.34375ZM14.9531 69.875H12.2344V53.75H9.51562V69.7393C6.41761 69.1144 4.07812 66.4001 4.07812 63.1562V57.7812C4.07812 54.0765 7.1272 51.0625 10.875 51.0625H14.9531V69.875ZM36.7031 81.9688H31.2656C29.7662 81.9688 28.5469 80.7634 28.5469 79.2812C28.5469 77.7991 29.7662 76.5938 31.2656 76.5938H36.7031C38.2025 76.5938 39.4219 77.7991 39.4219 79.2812C39.4219 80.7634 38.2025 81.9688 36.7031 81.9688ZM66.6094 57.7812V63.1562C66.6094 66.4001 64.2699 69.1144 61.1719 69.7393V53.75H58.4531V69.875H55.7344V51.0625H59.8125C63.5603 51.0625 66.6094 54.0765 66.6094 57.7812ZM33.9844 18.8125V21.5H31.2656V18.8125H33.9844ZM25.8281 20.1562C25.8281 19.4158 26.4371 18.8125 27.1875 18.8125H28.5469V21.5H27.1875C26.4371 21.5 25.8281 20.8967 25.8281 20.1562ZM36.7031 21.5V18.8125H42.1406V21.5H36.7031ZM82.9219 32.25C82.9219 32.9904 82.3129 33.5938 81.5625 33.5938H75.7349L66.6094 39.2321V33.5938H46.2188C45.4684 33.5938 44.8594 32.9904 44.8594 32.25V5.375C44.8594 4.63459 45.4684 4.03125 46.2188 4.03125H81.5625C82.3129 4.03125 82.9219 4.63459 82.9219 5.375V32.25Z" fill="url(#paint3_linear_65_837)"/>
<defs>
<linearGradient id="paint0_linear_65_837" x1="64.5703" y1="6.76294" x2="64.5703" y2="30.9063" gradientUnits="userSpaceOnUse">
<stop stop-color="#EECB8C"/>
<stop offset="1" stop-color="#887450"/>
</linearGradient>
<linearGradient id="paint1_linear_65_837" x1="35.3438" y1="38.9688" x2="35.3438" y2="71.2188" gradientUnits="userSpaceOnUse">
<stop stop-color="#EECB8C"/>
<stop offset="1" stop-color="#887450"/>
</linearGradient>
<linearGradient id="paint2_linear_65_837" x1="35.3438" y1="47.0312" x2="35.3438" y2="63.1562" gradientUnits="userSpaceOnUse">
<stop stop-color="#EECB8C"/>
<stop offset="1" stop-color="#887450"/>
</linearGradient>
<linearGradient id="paint3_linear_65_837" x1="43.5" y1="1.34375" x2="43.5" y2="84.6562" gradientUnits="userSpaceOnUse">
<stop stop-color="#EECB8C"/>
<stop offset="1" stop-color="#887450"/>
</linearGradient>
</defs>
</svg>
